<svg width="64" height="64" viewBox="0 0 64 64" fill="none" xmlns="http://www.w3.org/2000/svg">
<path d="M55 26H46V14C46 11.794 44.206 10 42 10H31V9C31 7.346 29.654 6 28 6H24C22.346 6 21 7.346 21 9V10H10C7.794 10 6 11.794 6 14V54C6 56.206 7.794 58 10 58H35H55C56.654 58 58 56.654 58 55V29C58 27.346 56.654 26 55 26ZM42 12C43.103 12 44 12.897 44 14V26H42V16C42 14.897 41.103 14 40 14H31V12H42ZM14 51H32V52H14V51ZM32 29V49H12V16H21V18H31V16H40V26H35C33.346 26 32 27.346 32 29ZM23 9C23 8.448 23.448 8 24 8H28C28.552 8 29 8.448 29 9V16H23V9ZM8 54V14C8 12.897 8.897 12 10 12H21V14H12C10.897 14 10 14.897 10 16V49C10 50.103 10.897 51 12 51V52C12 53.103 12.897 54 14 54H32V55C32 55.352 32.072 55.686 32.184 56H10C8.897 56 8 55.103 8 54ZM56 55C56 55.552 55.552 56 55 56H35C34.448 56 34 55.552 34 55V29C34 28.448 34.448 28 35 28H55C55.552 28 56 28.448 56 29V55Z" fill="#FB651E"/>
<path d="M52 30H38C36.897 30 36 30.897 36 32V38H54V32C54 30.897 53.103 30 52 30ZM52 36H38V32H52V36Z" fill="#FB651E"/>
<path d="M14 22H28V24H14V22Z" fill="#FB651E"/>
<path d="M14 26H24V28H14V26Z" fill="#FB651E"/>
<path d="M14 30H20V32H14V30Z" fill="#FB651E"/>
<path d="M14 41H16V45H14V41Z" fill="#FB651E"/>
<path d="M18 37H20V45H18V37Z" fill="#FB651E"/>
<path d="M22 39H24V45H22V39Z" fill="#FB651E"/>
<path d="M26 41H28V45H26V41Z" fill="#FB651E"/>
<path d="M41 45C41 45.552 40.552 46 40 46H38C37.448 46 37 45.552 37 45V43C37 42.448 37.448 42 38 42H40C40.552 42 41 42.448 41 43V45Z" fill="#FB651E"/>
<path d="M47 45C47 45.552 46.552 46 46 46H44C43.448 46 43 45.552 43 45V43C43 42.448 43.448 42 44 42H46C46.552 42 47 42.448 47 43V45Z" fill="#FB651E"/>
<path d="M53 45C53 45.552 52.552 46 52 46H50C49.448 46 49 45.552 49 45V43C49 42.448 49.448 42 50 42H52C52.552 42 53 42.448 53 43V45Z" fill="#FB651E"/>
<path d="M41 51C41 51.552 40.552 52 40 52H38C37.448 52 37 51.552 37 51V49C37 48.448 37.448 48 38 48H40C40.552 48 41 48.448 41 49V51Z" fill="#FB651E"/>
<path d="M47 51C47 51.552 46.552 52 46 52H44C43.448 52 43 51.552 43 51V49C43 48.448 43.448 48 44 48H46C46.552 48 47 48.448 47 49V51Z" fill="#FB651E"/>
<path d="M53 51C53 51.552 52.552 52 52 52H50C49.448 52 49 51.552 49 51V49C49 48.448 49.448 48 50 48H52C52.552 48 53 48.448 53 49V51Z" fill="#FB651E"/>
</svg>
