<svg width="64" height="64" viewBox="0 0 64 64" fill="none" xmlns="http://www.w3.org/2000/svg">
<path d="M27 41C28.933 41 30.5 39.433 30.5 37.5V37H23.5V37.5C23.5 39.433 25.067 41 27 41Z" fill="#FB651E"/>
<path d="M22 34C23.1046 34 24 33.1046 24 32C24 30.8954 23.1046 30 22 30C20.8954 30 20 30.8954 20 32C20 33.1046 20.8954 34 22 34Z" fill="#FB651E"/>
<path d="M32 34C33.1046 34 34 33.1046 34 32C34 30.8954 33.1046 30 32 30C30.8954 30 30 30.8954 30 32C30 33.1046 30.8954 34 32 34Z" fill="#FB651E"/>
<path d="M39.881 38.424C40.337 37.343 40.668 36.197 40.841 35H38.82C37.863 40.666 32.934 45 27 45C20.383 45 15 39.617 15 33V28H16C17.654 28 19 26.654 19 25V23C19 22.448 19.449 22 20 22H27.039H28H29.08C29.033 21.672 29 21.34 29 21V20H28H27.039H20C18.346 20 17 21.346 17 23V25C17 25.552 16.551 26 16 26H15H14.039H14V23C14 15.832 19.832 10 27 10C27.7 10 28.382 10.071 29.053 10.178C29.2 8.926 29.681 7.778 30.401 6.816C29.735 6.306 28.905 6 28 6H26C24.215 6 22.717 7.183 22.204 8.8C16.281 10.807 12 16.407 12 23V26.051C9.756 26.303 8 28.19 8 30.5C8 32.981 10.019 35 12.5 35H13.16C13.333 36.2 13.642 37.357 14.1 38.439C9.017 42.406 6 48.533 6 55V58H48V55C48 48.524 44.976 42.391 39.881 38.424ZM12.5 33C11.122 33 10 31.879 10 30.5C10 29.121 11.122 28 12.5 28H13V33H12.5ZM27 47C32.07 47 36.5 44.28 38.952 40.232C39.486 40.665 39.99 41.128 40.47 41.612C37.535 46.185 32.445 49 27 49C21.555 49 16.465 46.184 13.53 41.612C14.007 41.13 14.509 40.67 15.04 40.238C17.497 44.283 21.931 47 27 47ZM46 56H41V53H39V56H15V53H13V56H8V55C8 50.66 9.505 46.492 12.156 43.161C15.498 48.027 21.062 51 27 51C32.938 51 38.502 48.027 41.844 43.161C44.495 46.492 46 50.66 46 55V56Z" fill="#FB651E"/>
<path d="M52 6H36C33.243 6 31 8.243 31 11V21C31 23.757 33.243 26 36 26H40.83C41.971 26 42.942 26.848 42.997 27.891C43.026 28.448 42.832 28.975 42.45 29.377C42.069 29.779 41.554 30 41 30V32H43C46.521 32 49.442 29.388 49.929 26H52C54.757 26 57 23.757 57 21V11C57 8.243 54.757 6 52 6ZM55 21C55 22.654 53.654 24 52 24H48V25C48 27.195 46.578 29.064 44.606 29.735C44.895 29.137 45.03 28.472 44.995 27.786C44.884 25.663 43.054 24 40.83 24H36C34.346 24 33 22.654 33 21V11C33 9.346 34.346 8 36 8H52C53.654 8 55 9.346 55 11V21Z" fill="#FB651E"/>
<path d="M36 12.407V13H52V12.407V11H36V12.407Z" fill="#FB651E"/>
<path d="M39 15.943V17H49V15.943V15H39V15.943Z" fill="#FB651E"/>
<path d="M42 19.48V21H46V19.48V19H42V19.48Z" fill="#FB651E"/>
</svg>
