<svg width="64" height="64" viewBox="0 0 64 64" fill="none" xmlns="http://www.w3.org/2000/svg">
<path d="M18 27H8L9.749 23.503C9.9 23.199 10.268 23 10.677 23H15.323C15.732 23 16.1 23.199 16.251 23.503L18 27Z" fill="#FB651E"/>
<path d="M29 32H27V35H29V32Z" fill="#FB651E"/>
<path d="M37 32H35V35H37V32Z" fill="#FB651E"/>
<path d="M29 46H27V49H29V46Z" fill="#FB651E"/>
<path d="M37 46H35V49H37V46Z" fill="#FB651E"/>
<path d="M29 18H27V21H29V18Z" fill="#FB651E"/>
<path d="M37 18H35V21H37V18Z" fill="#FB651E"/>
<path d="M39 12.101V11C39 9.346 37.654 8 36 8H33V4H31V8H28C26.346 8 25 9.346 25 11V12.101C22.721 12.566 21 14.585 21 17V58H23V17C23 15.346 24.346 14 26 14H38C39.654 14 41 15.346 41 17V58H43V17C43 14.586 41.279 12.566 39 12.101ZM27 12V11C27 10.448 27.449 10 28 10H29V12H27ZM31 12V10H33V12H31ZM35 10H36C36.551 10 37 10.448 37 11V12H35V10Z" fill="#FB651E"/>
<path d="M29 16H27C25.897 16 25 16.897 25 18V58H27V51H29V58H31V45V18C31 16.897 30.103 16 29 16ZM27 23H29V30H27V23ZM27 32H29V35H27V32ZM29 18V21H27V18H29ZM27 49V46H29V49H27ZM27 44V37H29V44H27Z" fill="#FB651E"/>
<path d="M37 16H35C33.897 16 33 16.897 33 18V58H35V51H37V58H39V18C39 16.897 38.103 16 37 16ZM35 23H37V30H35V23ZM35 32H37V35H35V32ZM37 18V21H35V18H37ZM35 49V46H37V49H35ZM35 44V37H37V44H35Z" fill="#FB651E"/>
<path d="M55 37V36C55 34.897 54.103 34 53 34H52V28H50V34H49C47.897 34 47 34.897 47 36V37C45.897 37 45 37.897 45 39V58H47V39H55V44H51V46H55V48H51V50H55V52H51V54H55V56H51V58H55H56H57V39C57 37.897 56.103 37 55 37ZM49 37V36H53V37H49Z" fill="#FB651E"/>
<path d="M18.895 26.553L17.146 23.056C16.825 22.414 16.109 22 15.323 22H14V17H12V22H10.677C9.89 22 9.175 22.414 8.854 23.056L7.105 26.553C7.012 26.739 6.988 26.945 7.018 27.144C7.016 27.175 7 27.202 7 27.234V58H14V56H9V54H14V52H9V50H14V48H9V46H14V44H9V42H14V40H9V38H14V36H9V34H14V32H9V28H17V58H19V27.234C19 27.202 18.984 27.175 18.982 27.144C19.011 26.944 18.987 26.739 18.895 26.553ZM9.643 26L10.677 24L15.357 23.95L16.382 26H9.643Z" fill="#FB651E"/>
</svg>
