<svg width="64" height="64" viewBox="0 0 64 64" fill="none" xmlns="http://www.w3.org/2000/svg">
<path d="M36 24C34.9 24 34 24.9 34 26C34 27.1 34.9 28 36 28C37.1 28 38 27.1 38 26C38 24.9 37.1 24 36 24Z" fill="#FB651E"/>
<path d="M28 24C26.9 24 26 24.9 26 26C26 27.1 26.9 28 28 28C29.1 28 30 27.1 30 26C30 24.9 29.1 24 28 24Z" fill="#FB651E"/>
<path d="M54 49H51V33C51 31.3 49.7 30 48 30H43.3C43.4 29.7 43.5 29.3 43.6 29H44C46.2 29 48 27.2 48 25C48 23.5 47.2 22.2 46 21.6V20C46 12.3 39.7 6 32 6C24.3 6 18 12.3 18 20V21.6C16.8 22.3 16 23.6 16 25C16 27.2 17.8 29 20 29H20.4C20.5 29.3 20.6 29.7 20.7 30H16C14.3 30 13 31.3 13 33V49H10C9.4 49 9 49.4 9 50V52.5C9 55 11 57 13.5 57H50.4C52.9 57 54.9 55 54.9 52.5V50C55 49.4 54.6 49 54 49ZM46 25C46 26.1 45.1 27 44 27H43.9C43.9 26.7 44 26.3 44 26V23C45.1 23 46 23.9 46 25ZM44 20V21H43C39.6 21 36.6 18.9 35.5 15.7C36.7 13.9 37.5 11.8 37.9 9.5C41.5 11.5 44 15.5 44 20ZM31.9 8C31.4 13 27.1 17 22 17C21.5 17 20.9 16.9 20.4 16.9C21.8 11.8 26.4 8 31.9 8ZM20 27C18.9 27 18 26.1 18 25C18 23.9 18.9 23 20 23V26C20 26.3 20 26.7 20 27ZM20 21V20C20 19.6 20 19.2 20.1 18.8C20.7 18.9 21.4 19 22 19C28.2 19 33.3 14.2 33.9 8.2C34.6 8.3 35.2 8.5 35.8 8.7C35.1 15.6 29.1 21 22 21H20ZM22 26V23C26.8 23 31.1 20.9 34.1 17.5C35.6 20.5 38.6 22.6 42 23V26C42 27.4 41.7 28.8 41.1 30H22.9C22.3 28.8 22 27.4 22 26ZM11 52.5V51H13V54.9C11.9 54.7 11 53.7 11 52.5ZM15 55V33C15 32.4 15.4 32 16 32H48C48.6 32 49 32.4 49 33V55H15ZM53 52.5C53 53.7 52.1 54.7 51 55V51H53V52.5Z" fill="#FB651E"/>
<path d="M32 39.5C29.8 39.5 28 41.3 28 43.5C28 45.7 29.8 47.5 32 47.5C34.2 47.5 36 45.7 36 43.5C36 41.3 34.2 39.5 32 39.5ZM32 45.5C30.9 45.5 30 44.6 30 43.5C30 42.4 30.9 41.5 32 41.5C33.1 41.5 34 42.4 34 43.5C34 44.6 33.1 45.5 32 45.5Z" fill="#FB651E"/>
</svg>
