<svg width="64" height="64" viewBox="0 0 64 64" fill="none" xmlns="http://www.w3.org/2000/svg">
<path d="M32 16C31.4696 16 30.9609 16.2107 30.5858 16.5858C30.2107 16.9609 30 17.4696 30 18C30 18.5304 30.2107 19.0391 30.5858 19.4142C30.9609 19.7893 31.4696 20 32 20C32.5304 20 33.0391 19.7893 33.4142 19.4142C33.7893 19.0391 34 18.5304 34 18C34 17.4696 33.7893 16.9609 33.4142 16.5858C33.0391 16.2107 32.5304 16 32 16Z" fill="#FB651E"/>
<path d="M52.1 20.137C52.654 19.593 53 18.837 53 18C53 16.346 51.654 15 50 15H37.188C36.309 13.485 34.789 12.393 33 12.09V10H31V12.09C29.211 12.392 27.691 13.485 26.812 15H14C12.346 15 11 16.346 11 18C11 18.836 11.346 19.592 11.9 20.137L6 32.778V33V35C6 39.411 9.589 43 14 43C18.411 43 22 39.411 22 35V33V32.778L16.503 21H26.811C27.337 21.907 28.092 22.662 28.999 23.188V44H26.999C25.345 44 23.999 45.346 23.999 47V48H21.999C20.345 48 18.999 49.346 18.999 51V58H44.999V51C44.999 49.346 43.653 48 41.999 48H39.999V47C39.999 45.346 38.653 44 36.999 44H34.999V23.188C35.906 22.662 36.661 21.906 37.187 21H47.495L42 32.778V33V35C42 39.411 45.589 43 50 43C54.411 43 58 39.411 58 35V33V32.778L52.1 20.137ZM14 17C14.552 17 15 17.448 15 18C15 18.552 14.552 19 14 19C13.448 19 13 18.552 13 18C13 17.448 13.448 17 14 17ZM14 41C10.691 41 8 38.309 8 35H20C20 38.309 17.309 41 14 41ZM19.896 33H8.104L13.718 20.972C13.812 20.98 13.903 21 14 21H14.296L19.896 33ZM16.816 19C16.928 18.686 17 18.353 17 18C17 17.647 16.928 17.314 16.816 17H26.091C26.035 17.326 26 17.659 26 18C26 18.341 26.035 18.674 26.09 19H16.816ZM33 40H31V38H33V40ZM33 36H31V34H33V36ZM38 56H26V54H38V56ZM42 50C42.552 50 43 50.448 43 51V56H40V53.489C40 52.668 39.332 52 38.511 52H25.489C24.668 52 24 52.668 24 53.489V56H21V51C21 50.448 21.448 50 22 50H24H40H42ZM38 47V48H26V47C26 46.448 26.448 46 27 46H37C37.552 46 38 46.448 38 47ZM31 44V42H33V44H31ZM33 32H31V23.91C31.326 23.965 31.659 24 32 24C32.341 24 32.674 23.965 33 23.91V32ZM32 22C29.794 22 28 20.206 28 18C28 15.794 29.794 14 32 14C34.206 14 36 15.794 36 18C36 20.206 34.206 22 32 22ZM51 18C51 18.552 50.552 19 50 19C49.448 19 49 18.552 49 18C49 17.448 49.448 17 50 17C50.552 17 51 17.448 51 18ZM37.91 17H47.185C47.072 17.314 47 17.647 47 18C47 18.353 47.072 18.686 47.184 19H37.91C37.965 18.674 38 18.341 38 18C38 17.659 37.965 17.326 37.91 17ZM50 41C46.691 41 44 38.309 44 35H56C56 38.309 53.309 41 50 41ZM44.104 33L49.704 21H50C50.097 21 50.188 20.98 50.283 20.972L55.896 33H44.104Z" fill="#FB651E"/>
<path d="M32 8C33.103 8 34 8.897 34 10H36C36 7.794 34.206 6 32 6C29.794 6 28 7.794 28 10H30C30 8.897 30.897 8 32 8Z" fill="#FB651E"/>
</svg>
