<svg width="64" height="64" viewBox="0 0 64 64" fill="none" xmlns="http://www.w3.org/2000/svg">
<path d="M23 23H9V19.984C9 19.441 9.441 19 9.984 19H22.015C22.559 19 23 19.441 23 19.984V23Z" fill="#FB651E"/>
<path d="M58 15H51V8C51 6.346 49.654 5 48 5H6C4.346 5 3 6.346 3 8V32C3 33.654 4.346 35 6 35H13V42C13 43.654 14.346 45 16 45H58C59.654 45 61 43.654 61 42V18C61 16.346 59.654 15 58 15ZM5 32V8C5 7.449 5.449 7 6 7H48C48.551 7 49 7.449 49 8V32C49 32.551 48.551 33 48 33H6C5.449 33 5 32.551 5 32ZM59 42C59 42.551 58.551 43 58 43H16C15.449 43 15 42.551 15 42V35H48C49.654 35 51 33.654 51 32V17H58C58.551 17 59 17.449 59 18V42Z" fill="#FB651E"/>
<path d="M9 11H25V13H9V11Z" fill="#FB651E"/>
<path d="M9 15H23V17H9V15Z" fill="#FB651E"/>
<path d="M21 25H23V29H21V25Z" fill="#FB651E"/>
<path d="M9 25H11V29H9V25Z" fill="#FB651E"/>
<path d="M13 25H15V29H13V25Z" fill="#FB651E"/>
<path d="M17 25H19V29H17V25Z" fill="#FB651E"/>
<path d="M40 11H38V13H36C34.346 13 33 14.346 33 16V18C33 19.654 34.346 21 36 21H42C42.551 21 43 21.449 43 22V24C43 24.551 42.551 25 42 25H33V27H38V29H40V27H42C43.654 27 45 25.654 45 24V22C45 20.346 43.654 19 42 19H36C35.449 19 35 18.551 35 18V16C35 15.449 35.449 15 36 15H45V13H40V11Z" fill="#FB651E"/>
<path d="M19 38H33V40H19V38Z" fill="#FB651E"/>
<path d="M37 38H51V40H37V38Z" fill="#FB651E"/>
</svg>
